HIERARCHY
ROOT Hips
{
  OFFSET 0.18596 81.932 4.35203
  CHANNELS 6 Xposition Yposition Zposition Zrotation Xrotation Yrotation
  JOINT Spine
  {
    OFFSET 0 10.1816 0.1315
    CHANNELS 6 Xposition Yposition Zposition Zrotation Xrotation Yrotation
    JOINT Spine1
    {
      OFFSET 0 10.0835 -1.0008
      CHANNELS 6 Xposition Yposition Zposition Zrotation Xrotation Yrotation
      JOINT Spine2
      {
        OFFSET 0 9.1 -1.3734
        CHANNELS 6 Xposition Yposition Zposition Zrotation Xrotation Yrotation
        JOINT Neck
        {
          OFFSET 0 16.6717 -2.5162
          CHANNELS 6 Xposition Yposition Zposition Zrotation Xrotation Yrotation
          JOINT Head
          {
            OFFSET 0 9.6179 1.685
            CHANNELS 6 Xposition Yposition Zposition Zrotation Xrotation Yrotation
            JOINT HeadTop_End
            {
              OFFSET 0 17.8152 2.585
              CHANNELS 6 Xposition Yposition Zposition Zrotation Xrotation Yrotation
              End Site
              {
                OFFSET 0 0 0
              }
            }
            JOINT LeftEye
            {
              OFFSET 3.0676 6.4095 9.2836
              CHANNELS 6 Xposition Yposition Zposition Zrotation Xrotation Yrotation
              End Site
              {
                OFFSET 0 0 0
              }
            }
            JOINT RightEye
            {
              OFFSET -3.0676 6.4095 9.2835
              CHANNELS 6 Xposition Yposition Zposition Zrotation Xrotation Yrotation
              End Site
              {
                OFFSET 0 0 0
              }
            }
          }
        }
        JOINT LeftShoulder
        {
          OFFSET 4.5704 10.946 -2.628
          CHANNELS 6 Xposition Yposition Zposition Zrotation Xrotation Yrotation
          JOINT LeftArm
          {
            OFFSET 10.5924 -0.5246 -2.2321
            CHANNELS 6 Xposition Yposition Zposition Zrotation Xrotation Yrotation
            JOINT LeftForeArm
            {
              OFFSET 27.8415 -0.0001 0
              CHANNELS 6 Xposition Yposition Zposition Zrotation Xrotation Yrotation
              JOINT LeftHand
              {
                OFFSET 28.3288 0 0
                CHANNELS 6 Xposition Yposition Zposition Zrotation Xrotation Yrotation
                JOINT LeftHandThumb1
                {
                  OFFSET 2.4661 -1.575 2.6824
                  CHANNELS 6 Xposition Yposition Zposition Zrotation Xrotation Yrotation
                  JOINT LeftHandThumb2
                  {
                    OFFSET 3.2298 -1.8647 1.8647
                    CHANNELS 6 Xposition Yposition Zposition Zrotation Xrotation Yrotation
                    JOINT LeftHandThumb3
                    {
                      OFFSET 2.6526 -1.5315 1.5315
                      CHANNELS 6 Xposition Yposition Zposition Zrotation Xrotation Yrotation
                      End Site
                      {
                        OFFSET 1.9546 -1.1285 1.1285
                      }
                    }
                  }
                }
                JOINT LeftHandIndex1
                {
                  OFFSET 9.1093 -0.5171 2.2601
                  CHANNELS 6 Xposition Yposition Zposition Zrotation Xrotation Yrotation
                  JOINT LeftHandIndex2
                  {
                    OFFSET 3.6764 0 0
                    CHANNELS 6 Xposition Yposition Zposition Zrotation Xrotation Yrotation
                    JOINT LeftHandIndex3
                    {
                      OFFSET 2.8831 0 0
                      CHANNELS 6 Xposition Yposition Zposition Zrotation Xrotation Yrotation
                      End Site
                      {
                        OFFSET 2.3927 0 0
                      }
                    }
                  }
                }
                JOINT LeftHandMiddle1
                {
                  OFFSET 9.5334 0 0
                  CHANNELS 6 Xposition Yposition Zposition Zrotation Xrotation Yrotation
                  JOINT LeftHandMiddle2
                  {
                    OFFSET 3.6982 0 0
                    CHANNELS 6 Xposition Yposition Zposition Zrotation Xrotation Yrotation
                    JOINT LeftHandMiddle3
                    {
                      OFFSET 2.9509 0 0
                      CHANNELS 6 Xposition Yposition Zposition Zrotation Xrotation Yrotation
                      End Site
                      {
                        OFFSET 2.8339 0 0
                      }
                    }
                  }
                }
                JOINT LeftHandRing1
                {
                  OFFSET 9.1045 -0.0439 -1.8651
                  CHANNELS 6 Xposition Yposition Zposition Zrotation Xrotation Yrotation
                  JOINT LeftHandRing2
                  {
                    OFFSET 3.154 0 0
                    CHANNELS 6 Xposition Yposition Zposition Zrotation Xrotation Yrotation
                    JOINT LeftHandRing3
                    {
                      OFFSET 2.9377 0 0
                      CHANNELS 6 Xposition Yposition Zposition Zrotation Xrotation Yrotation
                      End Site
                      {
                        OFFSET 2.6475 0 0
                      }
                    }
                  }
                }
                JOINT LeftHandPinky1
                {
                  OFFSET 8.0778 -0.4887 -3.8061
                  CHANNELS 6 Xposition Yposition Zposition Zrotation Xrotation Yrotation
                  JOINT LeftHandPinky2
                  {
                    OFFSET 3.6 0 0
                    CHANNELS 6 Xposition Yposition Zposition Zrotation Xrotation Yrotation
                    JOINT LeftHandPinky3
                    {
                      OFFSET 2.1142 0 0
                      CHANNELS 6 Xposition Yposition Zposition Zrotation Xrotation Yrotation
                      End Site
                      {
                        OFFSET 1.9757 0 0
                      }
                    }
                  }
                }
              }
            }
          }
        }
        JOINT RightShoulder
        {
          OFFSET -4.57 10.9462 -2.628
          CHANNELS 6 Xposition Yposition Zposition Zrotation Xrotation Yrotation
          JOINT RightArm
          {
            OFFSET -10.5928 -0.5248 -2.2321
            CHANNELS 6 Xposition Yposition Zposition Zrotation Xrotation Yrotation
            JOINT RightForeArm
            {
              OFFSET -27.8415 0 0
              CHANNELS 6 Xposition Yposition Zposition Zrotation Xrotation Yrotation
              JOINT RightHand
              {
                OFFSET -28.3288 0 0.0001
                CHANNELS 6 Xposition Yposition Zposition Zrotation Xrotation Yrotation
                JOINT RightHandPinky1
                {
                  OFFSET -8.0767 -0.4885 -3.806
                  CHANNELS 6 Xposition Yposition Zposition Zrotation Xrotation Yrotation
                  JOINT RightHandPinky2
                  {
                    OFFSET -3.6 0 0.0001
                    CHANNELS 6 Xposition Yposition Zposition Zrotation Xrotation Yrotation
                    JOINT RightHandPinky3
                    {
                      OFFSET -2.1142 0 0
                      CHANNELS 6 Xposition Yposition Zposition Zrotation Xrotation Yrotation
                      End Site
                      {
                        OFFSET -1.9757 0 0
                      }
                    }
                  }
                }
                JOINT RightHandRing1
                {
                  OFFSET -9.1036 -0.0439 -1.8651
                  CHANNELS 6 Xposition Yposition Zposition Zrotation Xrotation Yrotation
                  JOINT RightHandRing2
                  {
                    OFFSET -3.154 0 0
                    CHANNELS 6 Xposition Yposition Zposition Zrotation Xrotation Yrotation
                    JOINT RightHandRing3
                    {
                      OFFSET -2.9377 0 0
                      CHANNELS 6 Xposition Yposition Zposition Zrotation Xrotation Yrotation
                      End Site
                      {
                        OFFSET -2.6475 0 0
                      }
                    }
                  }
                }
                JOINT RightHandMiddle1
                {
                  OFFSET -9.5325 0 0
                  CHANNELS 6 Xposition Yposition Zposition Zrotation Xrotation Yrotation
                  JOINT RightHandMiddle2
                  {
                    OFFSET -3.6982 0 0
                    CHANNELS 6 Xposition Yposition Zposition Zrotation Xrotation Yrotation
                    JOINT RightHandMiddle3
                    {
                      OFFSET -2.9509 0 0
                      CHANNELS 6 Xposition Yposition Zposition Zrotation Xrotation Yrotation
                      End Site
                      {
                        OFFSET -2.8339 0 0.0001
                      }
                    }
                  }
                }
                JOINT RightHandIndex1
                {
                  OFFSET -9.1083 -0.5168 2.2601
                  CHANNELS 6 Xposition Yposition Zposition Zrotation Xrotation Yrotation
                  JOINT RightHandIndex2
                  {
                    OFFSET -3.6764 0 0
                    CHANNELS 6 Xposition Yposition Zposition Zrotation Xrotation Yrotation
                    JOINT RightHandIndex3
                    {
                      OFFSET -2.8831 0 0
                      CHANNELS 6 Xposition Yposition Zposition Zrotation Xrotation Yrotation
                      End Site
                      {
                        OFFSET -2.3927 0 0
                      }
                    }
                  }
                }
                JOINT RightHandThumb1
                {
                  OFFSET -2.4648 -1.5727 2.6826
                  CHANNELS 6 Xposition Yposition Zposition Zrotation Xrotation Yrotation
                  JOINT RightHandThumb2
                  {
                    OFFSET -3.2298 -1.8647 1.8647
                    CHANNELS 6 Xposition Yposition Zposition Zrotation Xrotation Yrotation
                    JOINT RightHandThumb3
                    {
                      OFFSET -2.6526 -1.5314 1.5314
                      CHANNELS 6 Xposition Yposition Zposition Zrotation Xrotation Yrotation
                      End Site
                      {
                        OFFSET -1.9546 -1.1285 1.1285
                      }
                    }
                  }
                }
              }
            }
          }
        }
      }
    }
  }
  JOINT LeftUpLeg
  {
    OFFSET 8.2078 -6.7517 -1.5996
    CHANNELS 6 Xposition Yposition Zposition Zrotation Xrotation Yrotation
    JOINT LeftLeg
    {
      OFFSET 0 -44.3705 0.2846
      CHANNELS 6 Xposition Yposition Zposition Zrotation Xrotation Yrotation
      JOINT LeftFoot
      {
        OFFSET 0 -44.4279 -2.9822
        CHANNELS 6 Xposition Yposition Zposition Zrotation Xrotation Yrotation
        JOINT LeftToeBase
        {
          OFFSET 0 -8.7287 10.7106
          CHANNELS 6 Xposition Yposition Zposition Zrotation Xrotation Yrotation
          End Site
          {
            OFFSET 0 -0.0007 9.2781
          }
        }
      }
    }
  }
  JOINT RightUpLeg
  {
    OFFSET -8.2078 -6.7517 -1.5996
    CHANNELS 6 Xposition Yposition Zposition Zrotation Xrotation Yrotation
    JOINT RightLeg
    {
      OFFSET 0 -44.3705 0.2862
      CHANNELS 6 Xposition Yposition Zposition Zrotation Xrotation Yrotation
      JOINT RightFoot
      {
        OFFSET 0 -44.4277 -2.9838
        CHANNELS 6 Xposition Yposition Zposition Zrotation Xrotation Yrotation
        JOINT RightToeBase
        {
          OFFSET 0 -8.7287 10.7106
          CHANNELS 6 Xposition Yposition Zposition Zrotation Xrotation Yrotation
          End Site
          {
            OFFSET 0 -0.0007 9.2781
          }
        }
      }
    }
  }
}
MOTION
Frames:	4
Frame Time:	0.0333333
0.18596 81.932 4.35203 -3.74986 51.3799 2.50911 4.44089e-016 10.1816 0.1315 0.219722 1.55344 0.300042 -2.22045e-016 10.0835 -1.0008 0.701156 3.91289 0.378863 -1.11022e-016 9.1 -1.3734 0.696846 3.91336 0.385065 2.22045e-016 16.6717 -2.5162 3.66815 -26.5282 0.251317 0 9.6179 1.685 -5.59406 -27.3151 -1.78074 0 17.8152 2.585 -1.13059e-015 1.59028e-015 -1.98785e-016 3.0676 6.4095 9.2836 -1.13059e-015 1.59028e-015 -1.98785e-016 -3.0676 6.4095 9.2835 -1.13059e-015 1.59028e-015 -1.98785e-016 4.5704 10.946 -2.628 -5.8987 4.91043 -12.5591 10.5924 -0.5246 -2.2321 -42.8098 31.5176 -63.5285 27.8415 -0.0001 -1.77636e-015 -0.000199588 3.8195e-006 -0.0196201 28.3288 0 1.77636e-015 -9.2883 8.85132 11.667 2.4661 -1.575 2.6824 -1.71884 54.9998 -56.8187 3.2298 -1.8647 1.8647 -19.3643 15.662 29.4066 2.6526 -1.5315 1.5315 19.1102 17.2479 34.3983 9.1093 -0.5171 2.2601 -67.5315 -5.77602 3.52955 3.6764 0 -4.44089e-016 -36.5932 -1.15322 3.48675 2.8831 0 4.44089e-016 -40.0214 -1.37036 3.76171 9.5334 3.55271e-015 0 -68.5773 -5.8963 4.49519 3.6982 0 0 -38.9454 -1.30044 3.6768 2.9509 0 -1.77636e-015 -48.9008 -2.00559 4.40927 9.1045 -0.0439 -1.8651 -71.7424 -6.25053 7.01614 3.154 0 8.88178e-016 -34.3901 -1.02252 3.30344 2.9377 -7.10543e-015 -8.88178e-016 -49.588 -2.05882 4.45517 8.0778 -0.4887 -3.8061 -65.7952 -10.4673 10.41 3.6 7.10543e-015 1.77636e-015 -28.3147 -0.699754 2.77361 2.1142 7.10543e-015 1.77636e-015 -28.9033 -0.728546 2.8264 -4.57 10.9462 -2.628 14.921 6.43596 9.68875 -10.5928 -0.5248 -2.2321 45.3879 20.0157 58.7237 -27.8415 1.77636e-015 0 -6.09709e-006 -1.20137e-005 0.86447 -28.3288 3.55271e-015 0.0001 39.0987 28.1045 -18.5401 -8.0767 -0.4885 -3.806 49.6969 -3.35554 -4.7122 -3.6 0 0.0001 34.6856 -0.824226 -2.64051 -2.1142 0 0 40.8318 -1.13013 -3.03564 -9.1036 -0.0439 -1.8651 59.5799 -4.23685 -2.36868 -3.154 0 0 35.6736 -0.871266 -2.70726 -2.9377 0 0 57.7771 -2.16846 -3.92896 -9.5325 -7.10543e-015 0 58.5969 -4.1495 -2.88199 -3.6982 7.10543e-015 0 43.475 -1.27397 -3.19457 -2.9509 0 1.77636e-015 53.037 -1.852 -3.71258 -9.1083 -0.5168 2.2601 49.5381 -2.92003 -4.27504 -3.6764 0 0 46.323 -1.43699 -3.35822 -2.8831 0 0 35.0659 -0.842756 -2.66709 -2.4648 -1.5727 2.6826 17.308 48.9772 22.468 -3.2298 -1.8647 1.8647 -4.88454 18.5535 -19.2694 -2.6526 -1.5314 1.5314 -18.2497 15.4703 -32.4138 8.2078 -6.7517 -1.5996 123.15 -68.7062 122.962 3.55271e-015 -44.3705 0.2846 -17.5718 61.519 13.4992 0 -44.4279 -2.9822 -2.54315 -11.4055 -0.223255 0 -8.7287 10.7106 -5.22149e-007 0.367136 3.34615e-006 -8.2078 -6.7517 -1.5996 -119.465 -70.1298 -125.954 -7.10543e-015 -44.3705 0.2862 20.4484 60.3484 -15.5975 -7.10543e-015 -44.4277 -2.9838 -0.706622 -10.9742 -0.04574 1.77636e-015 -8.7287 10.7106 1.35955e-006 0.49686 9.19225e-006 
0.190257 81.9182 4.66523 -3.75578 51.4784 2.50854 0 10.1816 0.1315 0.23361 1.59544 0.267955 2.22045e-016 10.0835 -1.0008 0.710385 3.95459 0.341524 -1.11022e-016 9.1 -1.3734 0.705785 3.95521 0.347473 2.22045e-016 16.6717 -2.5162 3.63547 -26.8307 0.268834 -8.88178e-016 9.6179 1.685 -5.60106 -28.177 -1.88628 -8.88178e-016 17.8152 2.585 -3.97569e-016 -2.38542e-015 -0 3.0676 6.4095 9.2836 -3.97569e-016 -2.38542e-015 -0 -3.0676 6.4095 9.2835 -3.97569e-016 -2.38542e-015 -0 4.5704 10.946 -2.628 -6.4865 5.01149 -12.4405 10.5924 -0.5246 -2.2321 -42.2494 31.1491 -63.9543 27.8415 -0.0001 0 -0.000204487 -1.55171e-006 -2.27867e-006 28.3288 -1.77636e-015 0 -11.1265 9.08557 12.4149 2.4661 -1.575 2.6824 -1.71884 54.9998 -56.8187 3.2298 -1.8647 1.8647 -19.3643 15.662 29.4066 2.6526 -1.5315 1.5315 19.1102 17.2479 34.3983 9.1093 -0.5171 2.2601 -67.5315 -5.77602 3.52955 3.6764 0 -8.88178e-016 -36.5932 -1.15322 3.48675 2.8831 0 -4.44089e-016 -40.0214 -1.37036 3.76171 9.5334 -1.77636e-015 -8.88178e-016 -68.5773 -5.8963 4.49519 3.6982 0 0 -38.9454 -1.30044 3.6768 2.9509 0 0 -48.9008 -2.00559 4.40927 9.1045 -0.0439 -1.8651 -71.7424 -6.25053 7.01614 3.154 -7.10543e-015 -1.77636e-015 -34.3901 -1.02252 3.30344 2.9377 7.10543e-015 0 -49.588 -2.05882 4.45517 8.0778 -0.4887 -3.8061 -65.7952 -10.4673 10.41 3.6 0 3.55271e-015 -28.3147 -0.699754 2.77361 2.1142 7.10543e-015 1.77636e-015 -28.9033 -0.728546 2.8264 -4.57 10.9462 -2.628 15.4007 6.56972 10.0359 -10.5928 -0.5248 -2.2321 44.4304 19.5237 59.1042 -27.8415 -1.77636e-015 3.55271e-015 9.39645e-006 -4.83239e-006 -0.000181672 -28.3288 0 0.0001 39.9244 26.8793 -18.552 -8.0767 -0.4885 -3.806 49.6969 -3.35554 -4.7122 -3.6 7.10543e-015 0.0001 34.6856 -0.824226 -2.64051 -2.1142 0 6.66134e-016 40.8318 -1.13013 -3.03564 -9.1036 -0.0439 -1.8651 59.5799 -4.23685 -2.36868 -3.154 0 4.44089e-016 35.6736 -0.871266 -2.70726 -2.9377 0 4.44089e-016 57.7771 -2.16846 -3.92896 -9.5325 -3.55271e-015 0 58.5969 -4.1495 -2.88199 -3.6982 7.10543e-015 0 43.475 -1.27397 -3.19457 -2.9509 0 1.77636e-015 53.037 -1.852 -3.71258 -9.1083 -0.5168 2.2601 49.5381 -2.92003 -4.27504 -3.6764 0 -8.88178e-016 46.323 -1.43699 -3.35822 -2.8831 0 8.88178e-016 35.0659 -0.842756 -2.66709 -2.4648 -1.5727 2.6826 17.308 48.9772 22.468 -3.2298 -1.8647 1.8647 -4.88454 18.5535 -19.2694 -2.6526 -1.5314 1.5314 -18.2497 15.4703 -32.4138 8.2078 -6.7517 -1.5996 123.381 -68.8248 123.046 7.10543e-015 -44.3705 0.2846 -17.3548 61.7766 13.5329 3.55271e-015 -44.4279 -2.9822 -2.78209 -11.7498 -0.268533 3.55271e-015 -8.7287 10.7106 -5.47094e-007 0.367022 3.31619e-006 -8.2078 -6.7517 -1.5996 -119.343 -70.1073 -125.888 -3.55271e-015 -44.3705 0.2862 20.5096 60.5675 -15.5994 0 -44.4277 -2.9838 -0.667167 -11.2958 -0.0234144 0 -8.7287 10.7106 1.35955e-006 0.49686 9.19225e-006 
0.217678 81.9326 5.04651 -3.68604 51.2044 2.58533 -4.44089e-016 10.1816 0.1315 0.226497 1.64961 0.253237 -2.22045e-016 10.0835 -1.0008 0.706565 3.99182 0.329303 -1.66533e-016 9.1 -1.3734 0.70203 3.99239 0.335701 -2.22045e-016 16.6717 -2.5162 3.54591 -27.1052 0.245684 0 9.6179 1.685 -5.65212 -29.1648 -2.19333 -8.88178e-016 17.8152 2.585 -7.0817e-016 7.95139e-016 -1.98785e-016 3.0676 6.4095 9.2836 -7.0817e-016 7.95139e-016 -1.98785e-016 -3.0676 6.4095 9.2835 -7.0817e-016 7.95139e-016 -1.98785e-016 4.5704 10.946 -2.628 -7.40603 5.19355 -12.3705 10.5924 -0.5246 -2.2321 -41.1616 30.6742 -64.6203 27.8415 -0.0001 1.77636e-015 -0.000207175 1.81406e-008 1.21064e-007 28.3288 1.77636e-015 1.77636e-015 -13.5286 9.76733 13.4154 2.4661 -1.575 2.6824 -1.71884 54.9998 -56.8187 3.2298 -1.8647 1.8647 -19.3643 15.662 29.4066 2.6526 -1.5315 1.5315 19.1102 17.2479 34.3983 9.1093 -0.5171 2.2601 -67.5315 -5.77602 3.52955 3.6764 0 4.44089e-016 -36.5932 -1.15322 3.48675 2.8831 -7.10543e-015 -4.44089e-016 -40.0214 -1.37036 3.76171 9.5334 1.77636e-015 0 -68.5773 -5.8963 4.49519 3.6982 0 1.77636e-015 -38.9454 -1.30044 3.6768 2.9509 0 -4.44089e-016 -48.9008 -2.00559 4.40927 9.1045 -0.0439 -1.8651 -71.7424 -6.25053 7.01614 3.154 0 1.77636e-015 -34.3901 -1.02252 3.30344 2.9377 7.10543e-015 0 -49.588 -2.05882 4.45517 8.0778 -0.4887 -3.8061 -65.7952 -10.4673 10.41 3.6 1.42109e-014 0 -28.3147 -0.699754 2.77361 2.1142 7.10543e-015 0 -28.9033 -0.728546 2.8264 -4.57 10.9462 -2.628 15.9294 6.71539 10.3741 -10.5928 -0.5248 -2.2321 43.3492 18.9438 58.934 -27.8415 0 0 6.44821e-007 2.31114e-006 -0.000199658 -28.3288 -1.77636e-015 0.0001 40.6161 24.7665 -18.4831 -8.0767 -0.4885 -3.806 49.6969 -3.35554 -4.7122 -3.6 7.10543e-015 0.0001 34.6856 -0.824226 -2.64051 -2.1142 7.10543e-015 -2.22045e-016 40.8318 -1.13013 -3.03564 -9.1036 -0.0439 -1.8651 59.5799 -4.23685 -2.36868 -3.154 0 4.44089e-016 35.6736 -0.871266 -2.70726 -2.9377 0 0 57.7771 -2.16846 -3.92896 -9.5325 0 0 58.5969 -4.1495 -2.88199 -3.6982 -7.10543e-015 0 43.475 -1.27397 -3.19457 -2.9509 7.10543e-015 8.88178e-016 53.037 -1.852 -3.71258 -9.1083 -0.5168 2.2601 49.5381 -2.92003 -4.27504 -3.6764 0 0 46.323 -1.43699 -3.35822 -2.8831 7.10543e-015 0 35.0659 -0.842756 -2.66709 -2.4648 -1.5727 2.6826 17.308 48.9772 22.468 -3.2298 -1.8647 1.8647 -4.88454 18.5535 -19.2694 -2.6526 -1.5314 1.5314 -18.2497 15.4703 -32.4138 8.2078 -6.7517 -1.5996 122.887 -69.2958 122.459 0 -44.3705 0.2846 -17.0163 62.0979 13.4328 0 -44.4279 -2.9822 -3.02674 -12.1773 -0.316306 -1.77636e-015 -8.7287 10.7106 1.64284e-005 0.366734 9.86881e-006 -8.2078 -6.7517 -1.5996 -118.156 -70.1312 -124.609 -3.55271e-015 -44.3705 0.2862 20.6406 60.9041 -15.692 3.55271e-015 -44.4277 -2.9838 -0.576743 -11.7383 0.0157643 0 -8.7287 10.7106 1.35955e-006 0.49686 9.19225e-006 
0.249726 82.0062 5.47658 -3.55965 50.4576 2.66161 0 10.1816 0.1315 0.192433 1.71023 0.247708 -2.22045e-016 10.0835 -1.0008 0.685894 4.02114 0.329009 5.55112e-017 9.1 -1.3734 0.681483 4.02164 0.336817 0 16.6717 -2.5162 3.50655 -27.3107 0.216237 -8.88178e-016 9.6179 1.685 -5.65362 -30.0646 -2.48218 -4.44089e-016 17.8152 2.585 -2.48481e-016 3.97569e-016 1.98785e-016 3.0676 6.4095 9.2836 -2.48481e-016 3.97569e-016 1.98785e-016 -3.0676 6.4095 9.2835 -2.48481e-016 3.97569e-016 1.98785e-016 4.5704 10.946 -2.628 -8.20235 5.38341 -12.3839 10.5924 -0.5246 -2.2321 -39.7242 30.1326 -65.57 27.8415 -0.0001 -1.77636e-015 -0.000204114 -1.42369e-006 -5.17145e-006 28.3288 -1.77636e-015 0 -16.0669 10.6183 14.3349 2.4661 -1.575 2.6824 -1.71884 54.9998 -56.8187 3.2298 -1.8647 1.8647 -19.3643 15.662 29.4066 2.6526 -1.5315 1.5315 19.1102 17.2479 34.3983 9.1093 -0.5171 2.2601 -67.5315 -5.77602 3.52955 3.6764 0 0 -36.5932 -1.15322 3.48675 2.8831 7.10543e-015 4.44089e-016 -40.0214 -1.37036 3.76171 9.5334 -1.77636e-015 8.88178e-016 -68.5773 -5.8963 4.49519 3.6982 -7.10543e-015 4.44089e-016 -38.9454 -1.30044 3.6768 2.9509 -7.10543e-015 0 -48.9008 -2.00559 4.40927 9.1045 -0.0439 -1.8651 -71.7424 -6.25053 7.01614 3.154 7.10543e-015 8.88178e-016 -34.3901 -1.02252 3.30344 2.9377 0 -8.88178e-016 -49.588 -2.05882 4.45517 8.0778 -0.4887 -3.8061 -65.7952 -10.4673 10.41 3.6 7.10543e-015 -1.77636e-015 -28.3147 -0.699754 2.77361 2.1142 0 0 -28.9033 -0.728546 2.8264 -4.57 10.9462 -2.628 16.3784 6.82178 10.5212 -10.5928 -0.5248 -2.2321 42.3867 18.4138 58.9529 -27.8415 0 1.77636e-015 -9.66018e-007 2.6072e-006 -0.00018726 -28.3288 0 0.0001 40.8679 22.4147 -18.1273 -8.0767 -0.4885 -3.806 49.6969 -3.35554 -4.7122 -3.6 7.10543e-015 0.0001 34.6856 -0.824226 -2.64051 -2.1142 0 8.88178e-016 40.8318 -1.13013 -3.03564 -9.1036 -0.0439 -1.8651 59.5799 -4.23685 -2.36868 -3.154 7.10543e-015 0 35.6736 -0.871266 -2.70726 -2.9377 7.10543e-015 -4.44089e-016 57.7771 -2.16846 -3.92896 -9.5325 0 8.88178e-016 58.5969 -4.1495 -2.88199 -3.6982 7.10543e-015 -4.44089e-016 43.475 -1.27397 -3.19457 -2.9509 -7.10543e-015 0 53.037 -1.852 -3.71258 -9.1083 -0.5168 2.2601 49.5381 -2.92003 -4.27504 -3.6764 0 8.88178e-016 46.323 -1.43699 -3.35822 -2.8831 7.10543e-015 -8.88178e-016 35.0659 -0.842756 -2.66709 -2.4648 -1.5727 2.6826 17.308 48.9772 22.468 -3.2298 -1.8647 1.8647 -4.88454 18.5535 -19.2694 -2.6526 -1.5314 1.5314 -18.2497 15.4703 -32.4138 8.2078 -6.7517 -1.5996 121.22 -70.0934 120.709 7.10543e-015 -44.3705 0.2846 -16.4982 62.4555 13.1608 -3.55271e-015 -44.4279 -2.9822 -3.30331 -12.6658 -0.370925 -3.55271e-015 -8.7287 10.7106 -2.22943e-006 0.362573 -8.46069e-007 -8.2078 -6.7517 -1.5996 -115.722 -70.3594 -121.906 0 -44.3705 0.2862 20.798 61.2756 -15.8924 1.77636e-015 -44.4277 -2.9838 -0.421034 -12.2605 0.0782053 1.77636e-015 -8.7287 10.7106 1.35955e-006 0.49686 9.19225e-006 
